<mxfile host="app.diagrams.net" modified="2021-03-06T11:15:56.510Z" agent="5.0 (X11)" etag="NMUI1On-RvW7JQCHerV8" version="14.4.4" type="github">
  <diagram id="wwM1JgdG0fEtMVtHdKAY" name="Page-1">
    <mxGraphModel dx="1736" dy="1976" grid="1" gridSize="10" guides="1" tooltips="1" connect="1" arrows="1" fold="1" page="1" pageScale="1" pageWidth="850" pageHeight="1100" math="0" shadow="0">
      <root>
        <mxCell id="0" />
        <mxCell id="1" parent="0" />
        <mxCell id="2skkI8ONqYGgut1Zxsqh-15" value="&lt;font style=&quot;font-size: 14px&quot;&gt;create a Transaction&lt;br&gt;&lt;/font&gt;" style="rounded=1;whiteSpace=wrap;html=1;" vertex="1" parent="1">
          <mxGeometry x="70" y="90" width="250" height="50" as="geometry" />
        </mxCell>
        <mxCell id="2skkI8ONqYGgut1Zxsqh-16" value="" style="endArrow=classic;html=1;" edge="1" parent="1">
          <mxGeometry width="50" height="50" relative="1" as="geometry">
            <mxPoint x="190" as="sourcePoint" />
            <mxPoint x="190" y="80" as="targetPoint" />
          </mxGeometry>
        </mxCell>
        <mxCell id="2skkI8ONqYGgut1Zxsqh-17" value="Propagate Transaction to others" style="rounded=1;whiteSpace=wrap;html=1;" vertex="1" parent="1">
          <mxGeometry x="70" y="240" width="250" height="50" as="geometry" />
        </mxCell>
        <mxCell id="2skkI8ONqYGgut1Zxsqh-18" value="" style="endArrow=classic;html=1;" edge="1" parent="1">
          <mxGeometry width="50" height="50" relative="1" as="geometry">
            <mxPoint x="190" y="150" as="sourcePoint" />
            <mxPoint x="190" y="230" as="targetPoint" />
          </mxGeometry>
        </mxCell>
        <mxCell id="2skkI8ONqYGgut1Zxsqh-34" style="edgeStyle=orthogonalEdgeStyle;rounded=0;orthogonalLoop=1;jettySize=auto;html=1;entryX=0;entryY=1;entryDx=0;entryDy=-15;entryPerimeter=0;" edge="1" parent="1" source="2skkI8ONqYGgut1Zxsqh-19" target="2skkI8ONqYGgut1Zxsqh-30">
          <mxGeometry relative="1" as="geometry" />
        </mxCell>
        <mxCell id="2skkI8ONqYGgut1Zxsqh-19" value="Append Transaction to &lt;b&gt;&lt;font style=&quot;font-size: 11px&quot; color=&quot;#FF3333&quot;&gt;TRANSACTION POOL&lt;/font&gt;&lt;/b&gt;" style="rounded=1;whiteSpace=wrap;html=1;" vertex="1" parent="1">
          <mxGeometry x="70" y="390" width="250" height="50" as="geometry" />
        </mxCell>
        <mxCell id="2skkI8ONqYGgut1Zxsqh-20" value="" style="endArrow=classic;html=1;" edge="1" parent="1">
          <mxGeometry width="50" height="50" relative="1" as="geometry">
            <mxPoint x="190" y="300" as="sourcePoint" />
            <mxPoint x="190" y="380" as="targetPoint" />
          </mxGeometry>
        </mxCell>
        <mxCell id="2skkI8ONqYGgut1Zxsqh-21" value="" style="endArrow=classic;html=1;" edge="1" parent="1">
          <mxGeometry width="50" height="50" relative="1" as="geometry">
            <mxPoint x="190" y="450" as="sourcePoint" />
            <mxPoint x="190" y="690" as="targetPoint" />
          </mxGeometry>
        </mxCell>
        <mxCell id="2skkI8ONqYGgut1Zxsqh-22" value="More Transaction" style="rhombus;whiteSpace=wrap;html=1;" vertex="1" parent="1">
          <mxGeometry x="130" y="700" width="120" height="100" as="geometry" />
        </mxCell>
        <mxCell id="2skkI8ONqYGgut1Zxsqh-23" value="" style="endArrow=classic;html=1;exitX=1;exitY=0;exitDx=0;exitDy=0;" edge="1" parent="1" source="2skkI8ONqYGgut1Zxsqh-24">
          <mxGeometry width="50" height="50" relative="1" as="geometry">
            <mxPoint x="194.5" y="890" as="sourcePoint" />
            <mxPoint x="190" y="990" as="targetPoint" />
          </mxGeometry>
        </mxCell>
        <mxCell id="2skkI8ONqYGgut1Zxsqh-24" value="&lt;b&gt;NO&lt;/b&gt;" style="text;html=1;strokeColor=none;fillColor=none;align=center;verticalAlign=middle;whiteSpace=wrap;rounded=0;" vertex="1" parent="1">
          <mxGeometry x="150" y="810" width="40" height="20" as="geometry" />
        </mxCell>
        <mxCell id="2skkI8ONqYGgut1Zxsqh-25" value="&lt;b&gt;YES&lt;/b&gt;" style="text;html=1;strokeColor=none;fillColor=none;align=center;verticalAlign=middle;whiteSpace=wrap;rounded=0;" vertex="1" parent="1">
          <mxGeometry x="90" y="720" width="40" height="20" as="geometry" />
        </mxCell>
        <mxCell id="2skkI8ONqYGgut1Zxsqh-26" value="" style="endArrow=classic;html=1;" edge="1" parent="1">
          <mxGeometry width="50" height="50" relative="1" as="geometry">
            <mxPoint x="120" y="750" as="sourcePoint" />
            <mxPoint x="50" y="750" as="targetPoint" />
          </mxGeometry>
        </mxCell>
        <mxCell id="2skkI8ONqYGgut1Zxsqh-27" value="" style="endArrow=classic;html=1;" edge="1" parent="1">
          <mxGeometry width="50" height="50" relative="1" as="geometry">
            <mxPoint x="40" y="740" as="sourcePoint" />
            <mxPoint x="40" y="28.571428571428573" as="targetPoint" />
          </mxGeometry>
        </mxCell>
        <mxCell id="2skkI8ONqYGgut1Zxsqh-28" value="" style="endArrow=classic;html=1;" edge="1" parent="1">
          <mxGeometry width="50" height="50" relative="1" as="geometry">
            <mxPoint x="40" y="30" as="sourcePoint" />
            <mxPoint x="180" y="30" as="targetPoint" />
          </mxGeometry>
        </mxCell>
        <mxCell id="2skkI8ONqYGgut1Zxsqh-30" value="&lt;div&gt;T1&lt;/div&gt;&lt;div&gt;T2&lt;/div&gt;&lt;div&gt;T3&lt;/div&gt;&lt;div&gt;.&lt;/div&gt;&lt;div&gt;.&lt;/div&gt;&lt;div&gt;Tn&lt;br&gt;&lt;/div&gt;" style="shape=cylinder3;whiteSpace=wrap;html=1;boundedLbl=1;backgroundOutline=1;size=15;" vertex="1" parent="1">
          <mxGeometry x="410" y="280" width="90" height="150" as="geometry" />
        </mxCell>
        <mxCell id="2skkI8ONqYGgut1Zxsqh-31" value="Transaciton pool" style="text;html=1;strokeColor=none;fillColor=none;align=center;verticalAlign=middle;whiteSpace=wrap;rounded=0;" vertex="1" parent="1">
          <mxGeometry x="435" y="290" width="40" height="20" as="geometry" />
        </mxCell>
        <mxCell id="2skkI8ONqYGgut1Zxsqh-35" value="&lt;div&gt;B1&lt;/div&gt;&lt;div&gt;B2&lt;/div&gt;&lt;div&gt;B3&lt;/div&gt;&lt;div&gt;.&lt;/div&gt;&lt;div&gt;.&lt;/div&gt;&lt;div&gt;Bn&lt;br&gt;&lt;/div&gt;" style="shape=cylinder3;whiteSpace=wrap;html=1;boundedLbl=1;backgroundOutline=1;size=15;" vertex="1" parent="1">
          <mxGeometry x="980" y="540" width="90" height="150" as="geometry" />
        </mxCell>
        <mxCell id="2skkI8ONqYGgut1Zxsqh-36" value="&lt;div&gt;Local&lt;/div&gt;&lt;div&gt;Blockchain&lt;br&gt;&lt;/div&gt;" style="text;html=1;strokeColor=none;fillColor=none;align=center;verticalAlign=middle;whiteSpace=wrap;rounded=0;" vertex="1" parent="1">
          <mxGeometry x="1000" y="550" width="40" height="20" as="geometry" />
        </mxCell>
        <mxCell id="2skkI8ONqYGgut1Zxsqh-40" value="&lt;div&gt;Execute/Add transactions to &lt;br&gt;&lt;/div&gt;&lt;div&gt;the next Block B1&lt;br&gt;&lt;/div&gt;" style="rounded=1;whiteSpace=wrap;html=1;" vertex="1" parent="1">
          <mxGeometry x="1380" y="90" width="250" height="50" as="geometry" />
        </mxCell>
        <mxCell id="2skkI8ONqYGgut1Zxsqh-41" value="" style="endArrow=classic;html=1;" edge="1" parent="1">
          <mxGeometry width="50" height="50" relative="1" as="geometry">
            <mxPoint x="1500" as="sourcePoint" />
            <mxPoint x="1500" y="80" as="targetPoint" />
          </mxGeometry>
        </mxCell>
        <mxCell id="2skkI8ONqYGgut1Zxsqh-42" value="Find POW solution for B1" style="rounded=1;whiteSpace=wrap;html=1;" vertex="1" parent="1">
          <mxGeometry x="1380" y="240" width="250" height="50" as="geometry" />
        </mxCell>
        <mxCell id="2skkI8ONqYGgut1Zxsqh-43" value="" style="endArrow=classic;html=1;" edge="1" parent="1">
          <mxGeometry width="50" height="50" relative="1" as="geometry">
            <mxPoint x="1500" y="150" as="sourcePoint" />
            <mxPoint x="1500" y="230" as="targetPoint" />
          </mxGeometry>
        </mxCell>
        <mxCell id="2skkI8ONqYGgut1Zxsqh-46" style="edgeStyle=orthogonalEdgeStyle;rounded=0;orthogonalLoop=1;jettySize=auto;html=1;" edge="1" parent="1" source="2skkI8ONqYGgut1Zxsqh-44" target="2skkI8ONqYGgut1Zxsqh-47">
          <mxGeometry relative="1" as="geometry">
            <mxPoint x="1505" y="500" as="targetPoint" />
          </mxGeometry>
        </mxCell>
        <mxCell id="2skkI8ONqYGgut1Zxsqh-44" value="Propagate B1 to other nodes" style="rounded=1;whiteSpace=wrap;html=1;" vertex="1" parent="1">
          <mxGeometry x="1380" y="390" width="250" height="50" as="geometry" />
        </mxCell>
        <mxCell id="2skkI8ONqYGgut1Zxsqh-45" value="" style="endArrow=classic;html=1;" edge="1" parent="1">
          <mxGeometry width="50" height="50" relative="1" as="geometry">
            <mxPoint x="1500" y="300" as="sourcePoint" />
            <mxPoint x="1500" y="380" as="targetPoint" />
          </mxGeometry>
        </mxCell>
        <mxCell id="2skkI8ONqYGgut1Zxsqh-54" style="edgeStyle=orthogonalEdgeStyle;rounded=0;orthogonalLoop=1;jettySize=auto;html=1;" edge="1" parent="1" source="2skkI8ONqYGgut1Zxsqh-47">
          <mxGeometry relative="1" as="geometry">
            <mxPoint x="1439.9999999999998" y="515.0000000000002" as="targetPoint" />
          </mxGeometry>
        </mxCell>
        <mxCell id="2skkI8ONqYGgut1Zxsqh-56" style="edgeStyle=orthogonalEdgeStyle;rounded=0;orthogonalLoop=1;jettySize=auto;html=1;entryX=0.5;entryY=0;entryDx=0;entryDy=0;" edge="1" parent="1" source="2skkI8ONqYGgut1Zxsqh-47" target="2skkI8ONqYGgut1Zxsqh-55">
          <mxGeometry relative="1" as="geometry" />
        </mxCell>
        <mxCell id="2skkI8ONqYGgut1Zxsqh-64" style="edgeStyle=orthogonalEdgeStyle;rounded=0;orthogonalLoop=1;jettySize=auto;html=1;exitX=0.5;exitY=1;exitDx=0;exitDy=0;entryX=0.5;entryY=0;entryDx=0;entryDy=0;" edge="1" parent="1" source="2skkI8ONqYGgut1Zxsqh-47" target="2skkI8ONqYGgut1Zxsqh-63">
          <mxGeometry relative="1" as="geometry" />
        </mxCell>
        <mxCell id="2skkI8ONqYGgut1Zxsqh-47" value="&lt;div&gt;Is B1 depth&lt;/div&gt;&lt;div&gt; is ok?&lt;/div&gt;" style="rhombus;whiteSpace=wrap;html=1;" vertex="1" parent="1">
          <mxGeometry x="1460" y="470" width="96.25" height="90" as="geometry" />
        </mxCell>
        <mxCell id="2skkI8ONqYGgut1Zxsqh-50" value="&lt;font style=&quot;font-size: 10px&quot;&gt;&lt;b&gt;NO&lt;/b&gt;&lt;/font&gt;" style="text;html=1;strokeColor=none;fillColor=none;align=center;verticalAlign=middle;whiteSpace=wrap;rounded=0;" vertex="1" parent="1">
          <mxGeometry x="1516.2479310344827" y="560.0000000000002" width="40" height="20" as="geometry" />
        </mxCell>
        <mxCell id="2skkI8ONqYGgut1Zxsqh-52" value="&lt;font style=&quot;font-size: 10px&quot;&gt;YES&lt;/font&gt;" style="text;html=1;strokeColor=none;fillColor=none;align=center;verticalAlign=middle;whiteSpace=wrap;rounded=0;" vertex="1" parent="1">
          <mxGeometry x="1419.9979310344827" y="480.0000000000002" width="40" height="20" as="geometry" />
        </mxCell>
        <mxCell id="2skkI8ONqYGgut1Zxsqh-58" style="edgeStyle=orthogonalEdgeStyle;rounded=0;orthogonalLoop=1;jettySize=auto;html=1;exitX=0.5;exitY=1;exitDx=0;exitDy=0;" edge="1" parent="1" source="2skkI8ONqYGgut1Zxsqh-55">
          <mxGeometry relative="1" as="geometry">
            <mxPoint x="1265" y="630" as="targetPoint" />
          </mxGeometry>
        </mxCell>
        <mxCell id="2skkI8ONqYGgut1Zxsqh-55" value="Append B1 to Local Blockchain" style="rounded=1;whiteSpace=wrap;html=1;" vertex="1" parent="1">
          <mxGeometry x="1140" y="550" width="250" height="50" as="geometry" />
        </mxCell>
        <mxCell id="2skkI8ONqYGgut1Zxsqh-61" style="edgeStyle=orthogonalEdgeStyle;rounded=0;orthogonalLoop=1;jettySize=auto;html=1;exitX=0.5;exitY=1;exitDx=0;exitDy=0;" edge="1" parent="1" source="2skkI8ONqYGgut1Zxsqh-59">
          <mxGeometry relative="1" as="geometry">
            <mxPoint x="1265" y="720" as="targetPoint" />
          </mxGeometry>
        </mxCell>
        <mxCell id="2skkI8ONqYGgut1Zxsqh-59" value="Update Local Blockchain" style="rounded=1;whiteSpace=wrap;html=1;" vertex="1" parent="1">
          <mxGeometry x="1140" y="640" width="250" height="50" as="geometry" />
        </mxCell>
        <mxCell id="2skkI8ONqYGgut1Zxsqh-66" style="edgeStyle=orthogonalEdgeStyle;rounded=0;orthogonalLoop=1;jettySize=auto;html=1;" edge="1" parent="1" source="2skkI8ONqYGgut1Zxsqh-62">
          <mxGeometry relative="1" as="geometry">
            <mxPoint x="1265" y="820" as="targetPoint" />
          </mxGeometry>
        </mxCell>
        <mxCell id="2skkI8ONqYGgut1Zxsqh-62" value="Update Transaction Pool" style="rounded=1;whiteSpace=wrap;html=1;" vertex="1" parent="1">
          <mxGeometry x="1140" y="720" width="250" height="50" as="geometry" />
        </mxCell>
        <mxCell id="2skkI8ONqYGgut1Zxsqh-67" style="edgeStyle=orthogonalEdgeStyle;rounded=0;orthogonalLoop=1;jettySize=auto;html=1;" edge="1" parent="1" source="2skkI8ONqYGgut1Zxsqh-63">
          <mxGeometry relative="1" as="geometry">
            <mxPoint x="1510" y="790" as="targetPoint" />
          </mxGeometry>
        </mxCell>
        <mxCell id="2skkI8ONqYGgut1Zxsqh-63" value="&lt;div&gt;Discard&lt;/div&gt;&lt;div&gt; B1&lt;/div&gt;" style="ellipse;whiteSpace=wrap;html=1;" vertex="1" parent="1">
          <mxGeometry x="1470" y="620" width="80" height="50" as="geometry" />
        </mxCell>
        <mxCell id="2skkI8ONqYGgut1Zxsqh-65" style="edgeStyle=orthogonalEdgeStyle;rounded=0;orthogonalLoop=1;jettySize=auto;html=1;exitX=0.5;exitY=1;exitDx=0;exitDy=0;" edge="1" parent="1" source="2skkI8ONqYGgut1Zxsqh-63" target="2skkI8ONqYGgut1Zxsqh-63">
          <mxGeometry relative="1" as="geometry" />
        </mxCell>
        <mxCell id="2skkI8ONqYGgut1Zxsqh-68" value="" style="endArrow=classic;html=1;" edge="1" parent="1">
          <mxGeometry width="50" height="50" relative="1" as="geometry">
            <mxPoint x="1510" y="790" as="sourcePoint" />
            <mxPoint x="1270" y="790" as="targetPoint" />
          </mxGeometry>
        </mxCell>
        <mxCell id="2skkI8ONqYGgut1Zxsqh-70" style="edgeStyle=orthogonalEdgeStyle;rounded=0;orthogonalLoop=1;jettySize=auto;html=1;exitX=0.5;exitY=1;exitDx=0;exitDy=0;" edge="1" parent="1" source="2skkI8ONqYGgut1Zxsqh-69">
          <mxGeometry relative="1" as="geometry">
            <mxPoint x="1265" y="990" as="targetPoint" />
          </mxGeometry>
        </mxCell>
        <mxCell id="2skkI8ONqYGgut1Zxsqh-72" style="edgeStyle=orthogonalEdgeStyle;rounded=0;orthogonalLoop=1;jettySize=auto;html=1;exitX=1;exitY=0.5;exitDx=0;exitDy=0;" edge="1" parent="1" source="2skkI8ONqYGgut1Zxsqh-69">
          <mxGeometry relative="1" as="geometry">
            <mxPoint x="1680" y="870" as="targetPoint" />
          </mxGeometry>
        </mxCell>
        <mxCell id="2skkI8ONqYGgut1Zxsqh-69" value="More Blocks?" style="rhombus;whiteSpace=wrap;html=1;" vertex="1" parent="1">
          <mxGeometry x="1197.5" y="820" width="135" height="100" as="geometry" />
        </mxCell>
        <mxCell id="2skkI8ONqYGgut1Zxsqh-71" value="&lt;font style=&quot;font-size: 10px&quot;&gt;&lt;b&gt;NO&lt;/b&gt;&lt;/font&gt;" style="text;html=1;align=center;verticalAlign=middle;resizable=0;points=[];autosize=1;" vertex="1" parent="1">
          <mxGeometry x="1265" y="920" width="30" height="20" as="geometry" />
        </mxCell>
        <mxCell id="2skkI8ONqYGgut1Zxsqh-73" value="&lt;font style=&quot;font-size: 10px&quot;&gt;&lt;b&gt;YES&lt;/b&gt;&lt;/font&gt;" style="text;html=1;align=center;verticalAlign=middle;resizable=0;points=[];autosize=1;" vertex="1" parent="1">
          <mxGeometry x="1310" y="850" width="40" height="20" as="geometry" />
        </mxCell>
        <mxCell id="2skkI8ONqYGgut1Zxsqh-74" value="" style="endArrow=classic;html=1;" edge="1" parent="1">
          <mxGeometry width="50" height="50" relative="1" as="geometry">
            <mxPoint x="1680" y="860" as="sourcePoint" />
            <mxPoint x="1680" y="27.142857142857142" as="targetPoint" />
          </mxGeometry>
        </mxCell>
        <mxCell id="2skkI8ONqYGgut1Zxsqh-75" value="" style="endArrow=classic;html=1;" edge="1" parent="1">
          <mxGeometry width="50" height="50" relative="1" as="geometry">
            <mxPoint x="1670" y="30" as="sourcePoint" />
            <mxPoint x="1500" y="30" as="targetPoint" />
          </mxGeometry>
        </mxCell>
        <mxCell id="2skkI8ONqYGgut1Zxsqh-77" value="" style="endArrow=none;dashed=1;html=1;dashPattern=1 3;strokeWidth=2;" edge="1" parent="1">
          <mxGeometry width="50" height="50" relative="1" as="geometry">
            <mxPoint x="1070" y="590" as="sourcePoint" />
            <mxPoint x="1130" y="590" as="targetPoint" />
          </mxGeometry>
        </mxCell>
        <mxCell id="2skkI8ONqYGgut1Zxsqh-79" value="" style="endArrow=none;dashed=1;html=1;dashPattern=1 3;strokeWidth=2;entryX=0;entryY=0.5;entryDx=0;entryDy=0;" edge="1" parent="1" target="2skkI8ONqYGgut1Zxsqh-59">
          <mxGeometry width="50" height="50" relative="1" as="geometry">
            <mxPoint x="1073" y="665" as="sourcePoint" />
            <mxPoint x="1140" y="600" as="targetPoint" />
          </mxGeometry>
        </mxCell>
        <mxCell id="2skkI8ONqYGgut1Zxsqh-80" value="" style="endArrow=none;dashed=1;html=1;exitX=0.5;exitY=1;exitDx=0;exitDy=0;exitPerimeter=0;" edge="1" parent="1" source="2skkI8ONqYGgut1Zxsqh-30">
          <mxGeometry width="50" height="50" relative="1" as="geometry">
            <mxPoint x="710" y="440" as="sourcePoint" />
            <mxPoint x="1130" y="760" as="targetPoint" />
          </mxGeometry>
        </mxCell>
        <mxCell id="2skkI8ONqYGgut1Zxsqh-82" value="" style="shape=link;html=1;" edge="1" parent="1">
          <mxGeometry width="100" relative="1" as="geometry">
            <mxPoint x="100" y="1000" as="sourcePoint" />
            <mxPoint x="1310" y="991" as="targetPoint" />
          </mxGeometry>
        </mxCell>
        <mxCell id="2skkI8ONqYGgut1Zxsqh-86" style="edgeStyle=orthogonalEdgeStyle;rounded=0;orthogonalLoop=1;jettySize=auto;html=1;" edge="1" parent="1" source="2skkI8ONqYGgut1Zxsqh-84" target="2skkI8ONqYGgut1Zxsqh-87">
          <mxGeometry relative="1" as="geometry">
            <mxPoint x="630" y="1060" as="targetPoint" />
          </mxGeometry>
        </mxCell>
        <mxCell id="2skkI8ONqYGgut1Zxsqh-84" value="Fork Resolution" style="rounded=1;whiteSpace=wrap;html=1;" vertex="1" parent="1">
          <mxGeometry x="570" y="1000" width="120" height="40" as="geometry" />
        </mxCell>
        <mxCell id="2skkI8ONqYGgut1Zxsqh-85" style="edgeStyle=orthogonalEdgeStyle;rounded=0;orthogonalLoop=1;jettySize=auto;html=1;exitX=0.5;exitY=1;exitDx=0;exitDy=0;" edge="1" parent="1" source="2skkI8ONqYGgut1Zxsqh-84" target="2skkI8ONqYGgut1Zxsqh-84">
          <mxGeometry relative="1" as="geometry" />
        </mxCell>
        <mxCell id="2skkI8ONqYGgut1Zxsqh-87" value="" style="verticalLabelPosition=bottom;verticalAlign=top;html=1;shape=mxgraph.basic.donut;dx=25;" vertex="1" parent="1">
          <mxGeometry x="620" y="1070" width="20" height="20" as="geometry" />
        </mxCell>
      </root>
    </mxGraphModel>
  </diagram>
</mxfile>
